<svg viewBox="0 0 1101 157" fill="none" xmlns="http://www.w3.org/2000/svg">
<path d="M39 0.63623H78H156V156.54H0V78.588V39.6121L39 0.63623Z" fill="#44C0E6"/>
<path fill-rule="evenodd" clip-rule="evenodd" d="M76.2729 93.218L76.263 93.2206L76.258 93.2219C75.5065 93.4214 74.7441 93.6239 73.8621 93.8516L73.809 93.8658C73.3771 93.9818 73.332 93.9939 72.9302 93.5302C72.4482 92.9839 72.0947 92.6304 71.4198 92.3091C69.3954 91.3129 67.4352 91.6021 65.6036 92.7911C63.4184 94.205 62.2937 96.2938 62.3259 98.8967C62.358 101.467 64.1254 103.588 66.664 103.942C68.8491 104.231 70.6808 103.46 72.1268 101.821C72.3414 101.559 72.5382 101.279 72.7567 100.968C72.8328 100.86 72.9115 100.748 72.9944 100.632H66.7925C66.1177 100.632 65.957 100.214 66.182 99.6679C66.5997 98.6717 67.3709 97.0007 67.8208 96.1652C67.9172 95.9724 68.1422 95.6511 68.6242 95.6511H78.9654C79.4298 94.1796 80.1834 92.7891 81.1886 91.4735C83.5344 88.3886 86.3622 86.7819 90.1862 86.1071C93.4639 85.5286 96.5488 85.85 99.3445 87.7459C101.883 89.4812 103.458 91.827 103.875 94.9119C104.422 99.2501 103.168 102.785 100.18 105.806C98.0591 107.959 95.4562 109.308 92.4677 109.919C91.8977 110.024 91.3277 110.074 90.7668 110.124C90.474 110.149 90.1836 110.175 89.897 110.208C86.9728 110.144 84.3056 109.308 82.0562 107.38C80.4742 106.013 79.3844 104.332 78.8429 102.375C78.4671 103.134 78.0178 103.861 77.4932 104.552C75.1796 107.605 72.159 109.501 68.335 110.015C65.1858 110.433 62.2616 109.822 59.6909 107.894C57.3129 106.095 55.9633 103.717 55.6098 100.76C55.1921 97.2578 56.2203 94.1086 58.3412 91.345C60.6227 88.3566 63.6434 86.4606 67.3388 85.7858C70.3594 85.2395 73.2515 85.593 75.8544 87.3604C77.5575 88.4851 78.7786 90.0275 79.582 91.8914C79.7748 92.1805 79.6462 92.3412 79.2606 92.4376C78.1384 92.7226 77.2137 92.9682 76.2729 93.218ZM97.5226 96.882C97.5289 96.9899 97.5356 97.1036 97.5449 97.2256C97.3843 99.9892 96.0025 102.046 93.4639 103.363C91.7608 104.231 89.9934 104.327 88.226 103.556C85.9123 102.528 84.6912 99.9892 85.2697 97.4827C85.9766 94.462 87.9047 92.5661 90.8932 91.8913C93.9459 91.1843 96.8701 92.9839 97.4485 96.1652C97.494 96.3927 97.5073 96.6203 97.5226 96.882Z" fill="white"/>
<path d="M42.9807 93.016C42.8521 93.016 42.82 92.9517 42.8843 92.8553L43.5591 91.9877C43.6234 91.8913 43.784 91.827 43.9126 91.827H55.3845C55.513 91.827 55.5452 91.9234 55.4809 92.0198L54.9346 92.8553C54.8704 92.9517 54.7097 93.0482 54.6133 93.0482L42.9807 93.016Z" fill="white"/>
<path d="M38.1285 95.9724C38 95.9724 37.9679 95.9082 38.0321 95.8118L38.707 94.9441C38.7712 94.8477 38.9319 94.7835 39.0604 94.7835H53.7137C53.8422 94.7835 53.9065 94.8799 53.8743 94.9763L53.6173 95.7475C53.5851 95.876 53.4566 95.9403 53.328 95.9403L38.1285 95.9724Z" fill="white"/>
<path d="M45.8084 98.7361C45.7441 98.8325 45.7762 98.9289 45.9048 98.9289L52.9101 98.961C53.0065 98.961 53.135 98.8646 53.135 98.7361L53.1993 97.9648C53.1993 97.8363 53.135 97.7399 53.0065 97.7399H46.5796C46.4511 97.7399 46.3225 97.8363 46.2583 97.9327L45.8084 98.7361Z" fill="white"/>
<path d="M39 0.63623L0 39.6121H39V0.63623Z" fill="#282826"/>
<path d="M227.976 0.63623H266.952H344.904V156.54H189V78.588V39.6121L227.976 0.63623Z" fill="#FF8C4B"/>
<path d="M272.811 66.3027C274.134 67.8082 274.57 69.9609 274.19 71.9025C273.782 74.0833 272.572 76.0108 271.151 77.6711C270.011 79.0077 268.703 80.1896 267.338 81.287C265.748 82.5673 264.187 83.9462 263.188 85.7471C262.343 87.2104 262.146 89.0113 262.723 90.6012C263.666 93.3307 265.861 95.3567 267.057 97.9315C265.734 96.7637 264.44 95.5537 263.23 94.2734C261.964 92.9227 260.768 91.4875 259.98 89.7992C259.445 88.6173 259.206 87.2385 259.614 85.9863C260.022 84.7059 260.936 83.6788 261.851 82.7221C264.398 80.1755 267.535 78.3042 270.025 75.7154C271.404 74.2943 272.544 72.5919 272.938 70.6362C273.261 69.2011 273.107 67.7238 272.811 66.3027Z" fill="white"/>
<path d="M270.732 82.329C273.461 80.3171 276.655 79.0367 279.891 78.1081C277.331 79.7402 274.657 81.2316 272.448 83.328C271.646 84.1018 270.887 84.9882 270.535 86.0716C270.268 86.8736 270.38 87.76 270.704 88.5197C271.295 89.8704 272.294 90.9679 273.053 92.206C273.701 93.2612 273.813 94.6119 273.321 95.7516C272.575 97.4259 271.112 98.6499 269.592 99.6207C269.395 99.7333 269.226 99.9443 268.987 99.9725C270 99.0579 270.788 97.7635 270.76 96.3706C270.732 95.3295 270.155 94.4149 269.48 93.6692C268.087 92.009 266.919 89.8986 267.158 87.6615C267.397 85.4244 269.001 83.6235 270.732 82.329Z" fill="white"/>
<path d="M272.811 66.3027C274.134 67.8082 274.57 69.9609 274.19 71.9025C273.782 74.0833 272.572 76.0108 271.151 77.6711C270.011 79.0077 268.703 80.1896 267.338 81.287C265.748 82.5673 264.187 83.9462 263.188 85.7471C262.343 87.2104 262.146 89.0113 262.723 90.6012C263.666 93.3307 265.861 95.3567 267.057 97.9315C265.734 96.7637 264.44 95.5537 263.23 94.2734C261.964 92.9227 260.768 91.4875 259.98 89.7992C259.445 88.6173 259.206 87.2385 259.614 85.9863C260.022 84.7059 260.936 83.6788 261.851 82.7221C264.398 80.1755 267.535 78.3042 270.025 75.7154C271.404 74.2943 272.544 72.5919 272.938 70.6362C273.261 69.2011 273.107 67.7238 272.811 66.3027Z" stroke="white" stroke-width="0.0253878" stroke-miterlimit="10"/>
<path d="M270.732 82.329C273.461 80.3171 276.655 79.0367 279.891 78.1081C277.331 79.7402 274.657 81.2316 272.448 83.328C271.646 84.1018 270.887 84.9882 270.535 86.0716C270.268 86.8736 270.38 87.76 270.704 88.5197C271.295 89.8704 272.294 90.9679 273.053 92.206C273.701 93.2612 273.813 94.6119 273.321 95.7516C272.575 97.4259 271.112 98.6499 269.592 99.6207C269.395 99.7333 269.226 99.9443 268.987 99.9725C270 99.0579 270.788 97.7635 270.76 96.3706C270.732 95.3295 270.155 94.4149 269.48 93.6692C268.087 92.009 266.919 89.8986 267.158 87.6615C267.397 85.4244 269.001 83.6235 270.732 82.329Z" stroke="white" stroke-width="0.0253878" stroke-miterlimit="10"/>
<path d="M280.412 98.5925C281.002 97.875 281.945 97.6921 282.803 97.5795C284.295 97.3825 285.885 97.7624 287.01 98.7895C287.939 99.6196 288.459 100.914 288.262 102.166C288.051 103.615 287.081 104.825 285.983 105.74C283.999 107.33 281.551 108.258 279.103 108.878C279.244 108.723 279.398 108.582 279.581 108.469C281.439 107.471 283.282 106.303 284.647 104.671C285.477 103.658 286.124 102.335 285.857 100.998C285.575 99.4508 284.07 98.3252 282.536 98.2408C281.804 98.1704 281.115 98.4518 280.412 98.5925Z" fill="white"/>
<path d="M252.127 99.8736C254.716 98.7621 257.53 98.0445 260.358 98.0867C258.712 98.5651 257.023 98.9731 255.476 99.7048C255.11 99.9017 254.688 100.085 254.477 100.465C254.364 100.76 254.674 100.957 254.899 101.055C255.856 101.449 256.911 101.506 257.938 101.604C261.54 101.843 265.156 101.703 268.743 101.478C272.289 101.252 275.806 100.774 279.31 100.211C278.536 100.577 277.748 100.943 277.03 101.407C276.665 101.66 276.214 101.731 275.806 101.829C271.501 102.786 267.083 103.081 262.693 103.152C260.991 103.166 259.303 103.138 257.614 103.025C255.729 102.899 253.829 102.758 251.986 102.265C251.452 102.111 250.889 101.942 250.467 101.562C250.256 101.393 250.256 101.055 250.439 100.858C250.903 100.38 251.55 100.155 252.127 99.8736Z" fill="white"/>
<path d="M255.451 105.881C256.182 105.304 257.055 104.98 257.927 104.671C257.646 105.008 257.252 105.332 257.224 105.796C257.209 106.092 257.449 106.317 257.688 106.458C258.152 106.697 258.673 106.781 259.193 106.852C261.895 107.133 264.624 107.288 267.354 107.105C269.844 106.978 272.32 106.57 274.783 106.134C275.458 106.767 276.26 107.203 277.104 107.583C274.135 108.456 271.082 108.962 268.015 109.201C265.117 109.398 262.176 109.384 259.292 108.92C258.152 108.709 256.984 108.47 255.943 107.935C255.521 107.71 255.043 107.414 254.916 106.922C254.832 106.5 255.141 106.12 255.451 105.881Z" fill="white"/>
<path d="M257.086 112.015C257.733 111.495 258.535 111.227 259.323 111.002C259.07 111.241 258.62 111.537 258.817 111.945C259.196 112.437 259.9 112.494 260.463 112.62C262.841 112.916 265.246 113.113 267.624 112.93C269.425 112.817 271.198 112.494 272.957 112.184C273.97 112.775 275.025 113.282 276.108 113.732C274.448 114.478 272.661 114.956 270.874 115.294C267.863 115.828 264.754 115.899 261.729 115.42C260.392 115.181 259.028 114.871 257.818 114.21C257.353 113.943 256.861 113.633 256.664 113.113C256.509 112.705 256.762 112.269 257.086 112.015Z" fill="white"/>
<path d="M249.274 115.998C250.569 115.562 251.905 115.211 253.27 115.168C253.819 115.154 254.382 115.182 254.86 115.464C253.228 115.562 251.596 115.97 250.133 116.716C249.809 116.899 249.443 117.11 249.316 117.49C249.316 117.926 249.809 118.067 250.133 118.207C252.173 118.967 254.353 119.206 256.492 119.431C262.866 119.966 269.281 119.825 275.655 119.249C278.061 118.981 280.481 118.714 282.816 118.053C283.562 117.799 284.406 117.546 284.899 116.885C285.194 116.491 284.997 115.998 284.702 115.661C285.18 115.928 285.856 116.266 285.757 116.913C285.574 117.588 284.885 117.94 284.322 118.264C282.521 119.178 280.537 119.643 278.567 120.051C272.841 121.176 266.974 121.429 261.149 121.261C256.759 121.106 252.37 120.684 248.036 119.938C247.262 119.755 246.39 119.6 245.827 118.995C245.461 118.573 245.785 117.982 246.137 117.673C247.023 116.857 248.163 116.406 249.274 115.998Z" fill="white"/>
<path d="M284.338 120.808C285.759 120.316 287.278 119.795 288.334 118.67C288.151 119.894 287.096 120.738 286.054 121.287C284.056 122.328 281.819 122.806 279.596 123.2C274.897 123.946 270.127 124.129 265.358 124.044C262.108 123.946 258.829 123.819 255.636 123.144C254.876 122.933 254.06 122.792 253.399 122.342C256.241 122.82 259.125 123.017 262.009 123.13C266.751 123.271 271.506 123.088 276.22 122.497C278.949 122.117 281.693 121.653 284.338 120.808Z" fill="white"/>
<path d="M280.412 98.5925C281.002 97.875 281.945 97.6921 282.803 97.5795C284.295 97.3825 285.885 97.7624 287.01 98.7895C287.939 99.6196 288.459 100.914 288.262 102.166C288.051 103.615 287.081 104.825 285.983 105.74C283.999 107.33 281.551 108.258 279.103 108.878C279.244 108.723 279.398 108.582 279.581 108.469C281.439 107.471 283.282 106.303 284.647 104.671C285.477 103.658 286.124 102.335 285.857 100.998C285.575 99.4508 284.07 98.3252 282.536 98.2408C281.804 98.1704 281.115 98.4518 280.412 98.5925Z" stroke="white" stroke-width="0.0253878" stroke-miterlimit="10"/>
<path d="M252.127 99.8736C254.716 98.7621 257.53 98.0445 260.358 98.0867C258.712 98.5651 257.023 98.9731 255.476 99.7048C255.11 99.9017 254.688 100.085 254.477 100.465C254.364 100.76 254.674 100.957 254.899 101.055C255.856 101.449 256.911 101.506 257.938 101.604C261.54 101.843 265.156 101.703 268.743 101.478C272.289 101.252 275.806 100.774 279.31 100.211C278.536 100.577 277.748 100.943 277.03 101.407C276.665 101.66 276.214 101.731 275.806 101.829C271.501 102.786 267.083 103.081 262.693 103.152C260.991 103.166 259.303 103.138 257.614 103.025C255.729 102.899 253.829 102.758 251.986 102.265C251.452 102.111 250.889 101.942 250.467 101.562C250.256 101.393 250.256 101.055 250.439 100.858C250.903 100.38 251.55 100.155 252.127 99.8736Z" stroke="white" stroke-width="0.0253878" stroke-miterlimit="10"/>
<path d="M255.451 105.881C256.182 105.304 257.055 104.98 257.927 104.671C257.646 105.008 257.252 105.332 257.224 105.796C257.209 106.092 257.449 106.317 257.688 106.458C258.152 106.697 258.673 106.781 259.193 106.852C261.895 107.133 264.624 107.288 267.354 107.105C269.844 106.978 272.32 106.57 274.783 106.134C275.458 106.767 276.26 107.203 277.104 107.583C274.135 108.456 271.082 108.962 268.015 109.201C265.117 109.398 262.176 109.384 259.292 108.92C258.152 108.709 256.984 108.47 255.943 107.935C255.521 107.71 255.043 107.414 254.916 106.922C254.832 106.5 255.141 106.12 255.451 105.881Z" stroke="white" stroke-width="0.0253878" stroke-miterlimit="10"/>
<path d="M257.086 112.015C257.733 111.495 258.535 111.227 259.323 111.002C259.07 111.241 258.62 111.537 258.817 111.945C259.196 112.437 259.9 112.494 260.463 112.62C262.841 112.916 265.246 113.113 267.624 112.93C269.425 112.817 271.198 112.494 272.957 112.184C273.97 112.775 275.025 113.282 276.108 113.732C274.448 114.478 272.661 114.956 270.874 115.294C267.863 115.828 264.754 115.899 261.729 115.42C260.392 115.181 259.028 114.871 257.818 114.21C257.353 113.943 256.861 113.633 256.664 113.113C256.509 112.705 256.762 112.269 257.086 112.015Z" stroke="white" stroke-width="0.0253878" stroke-miterlimit="10"/>
<path d="M249.274 115.998C250.569 115.562 251.905 115.211 253.27 115.168C253.819 115.154 254.382 115.182 254.86 115.464C253.228 115.562 251.596 115.97 250.133 116.716C249.809 116.899 249.443 117.11 249.316 117.49C249.316 117.926 249.809 118.067 250.133 118.207C252.173 118.967 254.353 119.206 256.492 119.431C262.866 119.966 269.281 119.825 275.655 119.249C278.061 118.981 280.481 118.714 282.816 118.053C283.562 117.799 284.406 117.546 284.899 116.885C285.194 116.491 284.997 115.998 284.702 115.661C285.18 115.928 285.856 116.266 285.757 116.913C285.574 117.588 284.885 117.94 284.322 118.264C282.521 119.178 280.537 119.643 278.567 120.051C272.841 121.176 266.974 121.429 261.149 121.261C256.759 121.106 252.37 120.684 248.036 119.938C247.262 119.755 246.39 119.6 245.827 118.995C245.461 118.573 245.785 117.982 246.137 117.673C247.023 116.857 248.163 116.406 249.274 115.998Z" stroke="white" stroke-width="0.0253878" stroke-miterlimit="10"/>
<path d="M284.338 120.808C285.759 120.316 287.278 119.795 288.334 118.67C288.151 119.894 287.096 120.738 286.054 121.287C284.056 122.328 281.819 122.806 279.596 123.2C274.897 123.946 270.127 124.129 265.358 124.044C262.108 123.946 258.829 123.819 255.636 123.144C254.876 122.933 254.06 122.792 253.399 122.342C256.241 122.82 259.125 123.017 262.009 123.13C266.751 123.271 271.506 123.088 276.22 122.497C278.949 122.117 281.693 121.653 284.338 120.808Z" stroke="white" stroke-width="0.0253878" stroke-miterlimit="10"/>
<path d="M227.977 0.63623L189.001 39.6121H227.977V0.63623Z" fill="#282826"/>
<path d="M416.976 0.63623H455.952H533.904V156.636H378V78.6362V39.6362L416.976 0.63623Z" fill="#1581A2"/>
<g clip-path="url(#clip0_1398_5926)">
<path d="M476.812 85.8455C476.812 85.0463 476.644 84.3402 476.304 83.7343C475.969 83.1381 475.469 82.6386 474.797 82.2437C469.255 78.9976 463.707 75.7615 458.167 72.5121C456.673 71.6361 455.225 71.6682 453.743 72.5567C451.537 73.8781 440.492 80.3055 437.201 82.2419C435.846 83.039 435.186 84.2588 435.186 85.844C435.184 92.372 435.186 98.9001 435.184 105.428C435.184 106.21 435.345 106.902 435.67 107.499C436.005 108.113 436.512 108.626 437.199 109.03C440.49 110.967 451.536 117.394 453.742 118.715C455.225 119.604 456.673 119.636 458.168 118.76C463.708 115.511 469.256 112.274 474.799 109.028C475.486 108.625 475.994 108.111 476.328 107.498C476.653 106.901 476.814 106.208 476.814 105.426C476.814 105.426 476.814 92.3737 476.812 85.8455Z" fill="white"/>
<path d="M456.064 95.5725L435.672 107.499C436.006 108.113 436.514 108.626 437.201 109.03C440.492 110.967 451.538 117.394 453.743 118.715C455.227 119.604 456.675 119.636 458.169 118.76C463.71 115.511 469.258 112.274 474.801 109.028C475.488 108.625 475.995 108.111 476.33 107.498L456.064 95.5725Z" fill="white"/>
<path d="M476.814 85.8456C476.814 85.0464 476.646 84.3403 476.305 83.7344L456.064 95.5727L476.33 107.498C476.654 106.901 476.816 106.208 476.816 105.426C476.816 105.426 476.816 92.3738 476.814 85.8456Z" fill="white"/>
<path d="M468.069 91.1143V93.3436H470.264V91.1143H471.361V93.3436H473.556V94.4583H471.361V96.6875H473.556V97.8021H471.361V100.031H470.264V97.8021H468.069V100.031H466.972V97.8021H464.777V96.6875H466.972V94.4583H464.777V93.3436H466.972V91.1143H468.069ZM470.264 94.4581H468.069V96.6875H470.264V94.4581Z" fill="#1581A2"/>
<path d="M456.109 79.9179C461.834 79.9179 466.831 83.0758 469.509 87.7698L469.482 87.7246L462.747 91.6637C461.42 89.3816 458.988 87.8414 456.197 87.8096L456.109 87.8091C451.854 87.8091 448.404 91.3135 448.404 95.636C448.402 96.9984 448.753 98.3374 449.42 99.5193C450.748 101.875 453.245 103.463 456.109 103.463C458.991 103.463 461.502 101.854 462.824 99.4739L462.791 99.531L469.517 103.488C466.869 108.143 461.939 111.291 456.281 111.353L456.109 111.354C450.367 111.354 445.355 108.177 442.684 103.458C441.381 101.155 440.635 98.484 440.635 95.636C440.635 86.9552 447.563 79.9177 456.109 79.9177L456.109 79.9179Z" fill="#1581A2"/>
</g>
<path d="M416.881 0.63623L377.905 39.6362H416.881V0.63623Z" fill="#282826"/>
<path d="M606 0.63623H645H723V156.444H567V78.5399V39.5881L606 0.63623Z" fill="#6AEBBD"/>
<g clip-path="url(#clip1_1398_5926)">
<path d="M642.331 72.2456C643.516 71.5673 645.06 71.5642 646.244 72.2456C652.2 75.6114 658.159 78.9719 664.114 82.3397C665.235 82.9707 665.984 84.2173 665.973 85.5081V105.758C665.981 107.102 665.158 108.379 663.976 108.995C658.039 112.342 652.105 115.694 646.169 119.041C644.959 119.733 643.385 119.679 642.213 118.931C640.433 117.899 638.65 116.872 636.87 115.842C636.506 115.625 636.096 115.452 635.839 115.1C636.066 114.794 636.472 114.755 636.802 114.622C637.545 114.386 638.228 114.006 638.91 113.638C639.083 113.52 639.294 113.565 639.459 113.671C640.981 114.544 642.49 115.442 644.017 116.306C644.343 116.494 644.672 116.245 644.951 116.089C650.777 112.797 656.61 109.516 662.435 106.222C662.651 106.119 662.77 105.89 662.753 105.653C662.757 98.9731 662.754 92.2919 662.755 85.6119C662.779 85.3436 662.624 85.097 662.382 84.9872C656.465 81.6553 650.552 78.3183 644.637 74.9855C644.534 74.915 644.413 74.8772 644.288 74.8771C644.164 74.8769 644.042 74.9143 643.94 74.9845C638.024 78.3183 632.112 81.6584 626.197 84.9901C625.955 85.1001 625.793 85.3426 625.821 85.6119C625.822 92.2919 625.821 98.9731 625.821 105.654C625.811 105.769 625.836 105.885 625.894 105.986C625.951 106.086 626.038 106.167 626.143 106.216C627.722 107.111 629.302 108 630.882 108.892C631.772 109.371 632.864 109.656 633.845 109.289C634.71 108.979 635.316 108.096 635.3 107.177C635.308 100.536 635.296 93.8941 635.306 87.2541C635.284 86.9593 635.564 86.7157 635.851 86.7435C636.609 86.7384 637.369 86.7333 638.127 86.7455C638.444 86.7384 638.662 87.0558 638.622 87.3528C638.619 94.0359 638.631 100.719 638.617 107.402C638.619 109.183 637.888 111.121 636.24 111.993C634.21 113.044 631.702 112.821 629.697 111.813C627.961 110.947 626.304 109.924 624.599 108.996C623.415 108.383 622.595 107.101 622.604 105.758V85.5081C622.591 84.1906 623.37 82.9213 624.525 82.2995C630.461 78.9496 636.396 75.5971 642.331 72.2456Z" fill="#12875D"/>
<path d="M647.51 86.2729C650.099 86.1063 652.871 86.1742 655.2 87.4496C657.004 88.427 658.004 90.4782 658.036 92.4821C657.986 92.7524 657.703 92.9015 657.445 92.883C656.694 92.8819 655.943 92.8932 655.191 92.8779C654.873 92.8901 654.688 92.5963 654.648 92.3146C654.432 91.3558 653.909 90.4062 653.006 89.9437C651.621 89.2501 650.015 89.285 648.504 89.2995C647.401 89.358 646.215 89.4535 645.281 90.102C644.564 90.5933 644.346 91.5849 644.602 92.3836C644.843 92.957 645.505 93.142 646.047 93.3126C649.167 94.1286 652.473 94.0474 655.534 95.1213C656.801 95.559 658.04 96.4101 658.474 97.7367C659.041 99.5148 658.792 101.64 657.527 103.067C656.502 104.242 655.007 104.881 653.517 105.229C651.535 105.671 649.477 105.682 647.464 105.486C645.571 105.27 643.601 104.772 642.14 103.483C640.89 102.398 640.279 100.707 640.34 99.075C640.355 98.7994 640.629 98.6072 640.893 98.6299C641.649 98.6237 642.406 98.6217 643.162 98.6309C643.464 98.6093 643.688 98.8704 643.704 99.1551C643.843 100.069 644.187 101.027 644.983 101.569C646.521 102.561 648.45 102.493 650.21 102.521C651.668 102.456 653.305 102.436 654.496 101.473C655.124 100.923 655.31 100.003 655.14 99.2116C654.956 98.5436 654.257 98.2322 653.657 98.0287C650.577 97.0544 647.234 97.4079 644.184 96.3061C642.945 95.8685 641.748 95.0411 641.272 93.7689C640.608 91.9684 640.912 89.7413 642.31 88.3621C643.673 86.9902 645.64 86.4619 647.51 86.2727V86.2729Z" fill="#12875D"/>
</g>
<path d="M605.904 0.63623L566.904 39.5881H605.904V0.63623Z" fill="#1FE19B"/>
<path d="M795 0.63623H834H912V156.444H756V78.5399V39.5881L795 0.63623Z" fill="#FFDB7E"/>
<g clip-path="url(#clip2_1398_5926)">
<path d="M833.795 71.6501C821.639 71.6501 822.398 76.9424 822.398 76.9424L822.412 82.4252H834.012V84.0713H817.804C817.804 84.0713 810.025 83.1857 810.025 95.4994C810.025 107.813 816.815 107.376 816.815 107.376H820.867V101.662C820.867 101.662 820.648 94.8463 827.548 94.8463H839.053C839.053 94.8463 845.517 94.9513 845.517 88.5745V78.0308C845.517 78.0308 846.499 71.6501 833.795 71.6501ZM827.399 75.337C828.553 75.337 829.486 76.2735 829.486 77.4322C829.486 78.5909 828.553 79.5273 827.399 79.5273C826.244 79.5273 825.312 78.5909 825.312 77.4322C825.312 76.2735 826.244 75.337 827.399 75.337Z" fill="#8D6600"/>
<path d="M834.14 119.472C846.296 119.472 845.537 114.18 845.537 114.18L845.524 108.697H833.923V107.051H850.131C850.131 107.051 857.91 107.936 857.91 95.6228C857.91 83.3091 851.12 83.7458 851.12 83.7458H847.068V89.4598C847.068 89.4598 847.287 96.2758 840.387 96.2758H828.882C828.882 96.2758 822.418 96.1709 822.418 102.548V113.091C822.418 113.091 821.437 119.472 834.14 119.472ZM840.537 115.785C839.382 115.785 838.45 114.849 838.45 113.69C838.45 112.531 839.382 111.595 840.537 111.595C841.691 111.595 842.624 112.531 842.624 113.69C842.624 114.849 841.691 115.785 840.537 115.785Z" fill="#8D6600"/>
</g>
<path d="M795 0.63623L756 39.5881H795V0.63623Z" fill="#282826"/>
<path d="M984 0.63623H1023H1101V156.636H945V78.6362V39.6362L984 0.63623Z" fill="#19BD82"/>
<path d="M1044.71 85.7482C1044.71 84.9411 1044.53 84.2279 1044.18 83.6158C1043.84 83.014 1043.33 82.5095 1042.64 82.1106C1036.95 78.8323 1031.26 75.564 1025.58 72.2823C1024.05 71.3977 1022.56 71.4299 1021.04 72.3273C1018.78 73.6619 1007.45 80.1532 1004.07 82.1088C1002.68 82.9137 1002 84.1456 1002 85.7467C1002 92.3396 1002 98.9324 1002 105.525C1002 106.315 1002.17 107.014 1002.5 107.617C1002.84 108.237 1003.36 108.756 1004.07 109.163C1007.44 111.119 1018.78 117.61 1021.04 118.945C1022.56 119.843 1024.05 119.875 1025.58 118.99C1031.26 115.708 1036.95 112.44 1042.64 109.161C1043.34 108.754 1043.87 108.235 1044.21 107.615C1044.54 107.012 1044.71 106.313 1044.71 105.524C1044.71 105.524 1044.71 92.3413 1044.71 85.7482Z" fill="white"/>
<path d="M1023.42 95.572L1002.5 107.617C1002.84 108.237 1003.36 108.756 1004.07 109.164C1007.44 111.119 1018.77 117.61 1021.04 118.945C1022.56 119.843 1024.04 119.875 1025.58 118.99C1031.26 115.708 1036.95 112.44 1042.64 109.162C1043.34 108.754 1043.86 108.235 1044.21 107.616L1023.42 95.572Z" fill="white"/>
<path d="M1017.22 99.1399C1018.44 101.265 1020.73 102.698 1023.35 102.698C1025.99 102.698 1028.3 101.247 1029.51 99.099L1023.42 95.572L1017.22 99.1399Z" fill="white"/>
<path d="M1044.7 85.7488C1044.7 84.9417 1044.53 84.2285 1044.18 83.6165L1023.42 95.5724L1044.21 107.616C1044.54 107.013 1044.71 106.314 1044.71 105.524C1044.71 105.524 1044.71 92.3419 1044.7 85.7488Z" fill="white"/>
<path d="M1043.56 96.4315H1041.94V98.0564H1040.31V96.4315H1038.69V94.8072H1040.31V93.1826H1041.94V94.8072H1043.56V96.4315Z" fill="#19BD82"/>
<path d="M1037.64 96.4315H1036.01V98.0564H1034.39V96.4315H1032.76V94.8072H1034.39V93.1826H1036.01V94.8072H1037.64V96.4315Z" fill="#19BD82"/>
<path d="M1029.51 99.0981C1028.3 101.246 1026 102.698 1023.35 102.698C1020.73 102.698 1018.44 101.264 1017.22 99.1391C1016.63 98.1064 1016.29 96.9108 1016.29 95.6353C1016.29 91.735 1019.45 88.5732 1023.35 88.5732C1025.96 88.5732 1028.24 89.9887 1029.46 92.0921L1035.64 88.5376C1033.18 84.3023 1028.6 81.4529 1023.35 81.4529C1015.52 81.4529 1009.17 87.8027 1009.17 95.6353C1009.17 98.205 1009.86 100.615 1011.05 102.693C1013.5 106.951 1018.09 109.818 1023.35 109.818C1028.63 109.818 1033.23 106.939 1035.67 102.669L1029.51 99.0981Z" fill="#19BD82"/>
<path d="M984 0.63623L945 39.6362H984V0.63623Z" fill="#282826"/>
<defs>
<clipPath id="clip0_1398_5926">
<rect width="42" height="48" fill="white" transform="translate(435 71.6362)"/>
</clipPath>
<clipPath id="clip1_1398_5926">
<rect width="43.584" height="48" fill="white" transform="translate(622.5 71.6362)"/>
</clipPath>
<clipPath id="clip2_1398_5926">
<rect width="48" height="48" fill="white" transform="translate(810 71.6362)"/>
</clipPath>
</defs>
</svg>
