<?xml version="1.0" encoding="UTF-8" standalone="no"?>
<svg
   width="1280"
   height="1595"
   viewBox="0 0 1280 1595"
   fill="none"
   version="1.1"
   id="svg64"
   sodipodi:docname="staticBackground.svg"
   inkscape:version="1.2.2 (b0a8486, 2022-12-01)"
   xmlns:inkscape="http://www.inkscape.org/namespaces/inkscape"
   xmlns:sodipodi="http://sodipodi.sourceforge.net/DTD/sodipodi-0.dtd"
   xmlns="http://www.w3.org/2000/svg"
   xmlns:svg="http://www.w3.org/2000/svg">
  <sodipodi:namedview
     id="namedview4773"
     pagecolor="#ffffff"
     bordercolor="#000000"
     borderopacity="0.25"
     inkscape:showpageshadow="2"
     inkscape:pageopacity="0.0"
     inkscape:pagecheckerboard="0"
     inkscape:deskcolor="#d1d1d1"
     showgrid="false"
     inkscape:zoom="0.14796238"
     inkscape:cx="642.05508"
     inkscape:cy="797.5"
     inkscape:window-width="1440"
     inkscape:window-height="872"
     inkscape:window-x="0"
     inkscape:window-y="28"
     inkscape:window-maximized="0"
     inkscape:current-layer="svg64" />
  <defs
     id="defs68" />
  <g
     style="mix-blend-mode:multiply"
     id="g4"
     transform="matrix(0.52204005,0,0,0.47771611,329.58427,110.89076)">
    <path
       d="m 609,89 505,584"
       stroke="#fffaca"
       stroke-width="130"
       stroke-linecap="round"
       id="path2" />
  </g>
  <g
     style="mix-blend-mode:multiply"
     id="g8"
     transform="matrix(0.52204005,0,0,0.47771611,329.58427,110.89076)">
    <path
       d="M 353,859 1114,673"
       stroke="#caffcf"
       stroke-width="130"
       stroke-linecap="round"
       id="path6" />
  </g>
  <g
     style="mix-blend-mode:multiply"
     id="g12"
     transform="matrix(0.52204005,0,0,0.47771611,329.58427,110.89076)">
    <path
       d="M 733,1466 1114,673"
       stroke="#caffcf"
       stroke-width="130"
       stroke-linecap="round"
       id="path10" />
  </g>
  <g
     style="mix-blend-mode:multiply"
     id="g16"
     transform="matrix(0.52204005,0,0,0.47771611,329.58427,110.89076)">
    <path
       d="M 1010,1228 1114,673"
       stroke="#caffcf"
       stroke-width="130"
       stroke-linecap="round"
       id="path14" />
  </g>
  <g
     style="mix-blend-mode:multiply"
     id="g20"
     transform="matrix(0.52204005,0,0,0.47771611,329.58427,110.89076)">
    <path
       d="m 700,462 414,211"
       stroke="#fffaca"
       stroke-width="130"
       stroke-linecap="round"
       id="path18" />
  </g>
  <g
     style="mix-blend-mode:multiply"
     id="g24"
     transform="matrix(0.52204005,0,0,0.47771611,329.58427,110.89076)">
    <path
       d="M 1406,89 1114,674"
       stroke="rgba(98,179,255,0.51)"
       stroke-width="130"
       stroke-linecap="round"
       id="path22" />
  </g>
  <g
     style="mix-blend-mode:multiply"
     id="g28"
     transform="matrix(0.52204005,0,0,0.47771611,329.58427,110.89076)">
    <path
       d="M 1455,295 1114,674"
       stroke="rgba(98,179,255,0.5)"
       stroke-width="130"
       stroke-linecap="round"
       id="path26" />
  </g>
  <g
     style="mix-blend-mode:multiply"
     id="g32"
     transform="matrix(0.52204005,0,0,0.47771611,329.58427,110.89076)">
    <path
       d="M 1509,1176 1114,673"
       stroke="#caffcf"
       stroke-width="130"
       stroke-linecap="round"
       id="path30" />
  </g>
  <g
     style="mix-blend-mode:multiply"
     id="g36"
     transform="matrix(0.52204005,0,0,0.47771611,329.58427,110.89076)">
    <path
       d="M 15,1258 1114,673"
       stroke="#caffcf"
       stroke-width="130"
       stroke-linecap="round"
       id="path34" />
  </g>
  <g
     style="mix-blend-mode:multiply"
     id="g40"
     transform="matrix(0.52204005,0,0,0.47771611,329.58427,110.89076)">
    <path
       d="M -443,2377 1114,673"
       stroke="#fffaca"
       stroke-width="130"
       stroke-linecap="round"
       id="path38" />
  </g>
  <g
     style="mix-blend-mode:multiply"
     id="g44"
     transform="matrix(0.52204005,0,0,0.47771611,329.58427,110.89076)">
    <path
       d="M 367,2778 1114,673"
       stroke="#caffcf"
       stroke-width="130"
       stroke-linecap="round"
       id="path42" />
  </g>
  <g
     style="mix-blend-mode:multiply"
     id="g48"
     transform="matrix(0.52204005,0,0,0.47771611,329.58427,110.89076)">
    <path
       d="M 1668,739 1114,674"
       stroke="#caffcf"
       stroke-width="130"
       stroke-linecap="round"
       id="path46" />
  </g>
  <ellipse
     cx="647.50665"
     cy="153.40747"
     fill="#ffcd4b"
     id="circle50"
     rx="33.932602"
     ry="31.051546"
     style="stroke-width:0.499386" />
  <ellipse
     cx="695.01227"
     cy="331.59558"
     fill="#ffcd4b"
     id="circle52"
     rx="33.932602"
     ry="31.051546"
     style="stroke-width:0.499386" />
  <ellipse
     cx="337.41489"
     cy="711.85754"
     fill="#19bd82"
     id="circle54"
     rx="33.932602"
     ry="31.051546"
     style="stroke-width:0.499386" />
  <ellipse
     cx="513.86438"
     cy="521.2489"
     fill="#19bd82"
     id="circle56"
     rx="33.932602"
     ry="31.051546"
     style="stroke-width:0.499386" />
  <ellipse
     cx="712.23962"
     cy="811.22253"
     fill="#19bd82"
     id="circle58"
     rx="33.932602"
     ry="31.051546"
     style="stroke-width:0.499386" />
  <ellipse
     cx="856.84473"
     cy="697.52625"
     fill="#19bd82"
     id="circle60"
     rx="33.932602"
     ry="31.051546"
     style="stroke-width:0.499386" />
  <ellipse
     cx="911.1369"
     cy="432.39368"
     fill="#282826"
     id="circle62"
     rx="33.932602"
     ry="31.051546"
     style="stroke-width:0.499386" />
</svg>
